<?xml version="1.0" encoding="UTF-8"?>
<svg version="1.1" xmlns="http://www.w3.org/2000/svg" width="32" height="32">
<path d="M0 0 C4.8846525 2.26787438 7.73212562 5.1153475 10 10 C10.75381535 15.5997712 10.77303575 20.33499991 8.375 25.5 C3.80134327 30.3143755 0.6912538 32.25156236 -6 32.5 C-12.6912538 32.25156236 -15.80134327 30.3143755 -20.375 25.5 C-22.77303575 20.33499991 -22.75381535 15.5997712 -22 10 C-17.52212837 0.3553534 -9.85292056 -1.32635469 0 0 Z " fill="#FDFDFD" transform="translate(22,0)"/>
<path d="M0 0 C1.47919922 0.06960938 1.47919922 0.06960938 2.98828125 0.140625 C3.98214844 0.17671875 4.97601563 0.2128125 6 0.25 C7.13888672 0.31960938 7.13888672 0.31960938 8.30078125 0.390625 C7.15286812 4.27586943 6.16857762 7.47251642 3.30078125 10.390625 C0.6015625 10.78125 0.6015625 10.78125 -2.38671875 10.640625 C-3.38058594 10.60453125 -4.37445313 10.5684375 -5.3984375 10.53125 C-6.53732422 10.46164063 -6.53732422 10.46164063 -7.69921875 10.390625 C-4.83603843 0.69986084 -4.83603843 0.69986084 0 0 Z " fill="#060606" transform="translate(15.69921875,10.609375)"/>
</svg>
